<svg width="128" height="128" viewBox="0 0 128 128" xmlns="http://www.w3.org/2000/svg">
  <defs>
    <linearGradient id="bg" x1="0" y1="0" x2="1" y2="1">
      <stop offset="0" stop-color="#4f46e5"/>
      <stop offset="1" stop-color="#6366f1"/>
    </linearGradient>
  </defs>
  <!-- 인디고 라운드 사각형 배경 -->
  <rect x="4" y="4" width="120" height="120" rx="28" fill="url(#bg)"/>
  <!-- 흰 말풍선 (표현/구문) -->
  <path d="M28 30 h72 a14 14 0 0 1 14 14 v34 a14 14 0 0 1 -14 14 h-40 l-18 16 v-16 h-14 a14 14 0 0 1 -14 -14 v-34 a14 14 0 0 1 14 -14 z" fill="#ffffff"/>
  <!-- 앰버 별 (hero 스파크) -->
  <polygon points="64,40 69.6,55.2 85.7,55.9 73.1,66 77.4,81.6 64,72.6 50.6,81.6 54.9,66 42.3,55.9 58.4,55.2" fill="#f59e0b"/>
</svg>
